<svg id="SvgjsSvg2748" width="907" height="1314" xmlns="http://www.w3.org/2000/svg" version="1.1" xmlns:xlink="http://www.w3.org/1999/xlink" xmlns:svgjs="http://svgjs.com/svgjs"><defs id="SvgjsDefs2749"><marker id="SvgjsMarker2819" markerWidth="16" markerHeight="12" refX="16" refY="6" viewBox="0 0 16 12" orient="auto" markerUnits="userSpaceOnUse" stroke-dasharray="0,0"><path id="SvgjsPath2820" d="M0,2 L14,6 L0,11 L0,2" fill="#323232" stroke="#323232" stroke-width="2"></path></marker><marker id="SvgjsMarker2825" markerWidth="16" markerHeight="12" refX="16" refY="6" viewBox="0 0 16 12" orient="auto" markerUnits="userSpaceOnUse" stroke-dasharray="0,0"><path id="SvgjsPath2826" d="M0,2 L14,6 L0,11 L0,2" fill="#323232" stroke="#323232" stroke-width="2"></path></marker><marker id="SvgjsMarker2831" markerWidth="16" markerHeight="12" refX="16" refY="6" viewBox="0 0 16 12" orient="auto" markerUnits="userSpaceOnUse" stroke-dasharray="0,0"><path id="SvgjsPath2832" d="M0,2 L14,6 L0,11 L0,2" fill="#323232" stroke="#323232" stroke-width="2"></path></marker><marker id="SvgjsMarker2837" markerWidth="16" markerHeight="12" refX="16" refY="6" viewBox="0 0 16 12" orient="auto" markerUnits="userSpaceOnUse" stroke-dasharray="0,0"><path id="SvgjsPath2838" d="M0,2 L14,6 L0,11 L0,2" fill="#323232" stroke="#323232" stroke-width="2"></path></marker><marker id="SvgjsMarker2843" markerWidth="16" markerHeight="12" refX="16" refY="6" viewBox="0 0 16 12" orient="auto" markerUnits="userSpaceOnUse" stroke-dasharray="0,0"><path id="SvgjsPath2844" d="M0,2 L14,6 L0,11 L0,2" fill="#323232" stroke="#323232" stroke-width="2"></path></marker><marker id="SvgjsMarker2847" markerWidth="16" markerHeight="12" refX="16" refY="6" viewBox="0 0 16 12" orient="auto" markerUnits="userSpaceOnUse" stroke-dasharray="0,0"><path id="SvgjsPath2848" d="M0,2 L14,6 L0,11 L0,2" fill="#323232" stroke="#323232" stroke-width="2"></path></marker><marker id="SvgjsMarker2859" markerWidth="16" markerHeight="12" refX="16" refY="6" viewBox="0 0 16 12" orient="auto" markerUnits="userSpaceOnUse" stroke-dasharray="0,0"><path id="SvgjsPath2860" d="M0,2 L14,6 L0,11 L0,2" fill="#323232" stroke="#323232" stroke-width="2"></path></marker><marker id="SvgjsMarker2863" markerWidth="16" markerHeight="12" refX="16" refY="6" viewBox="0 0 16 12" orient="auto" markerUnits="userSpaceOnUse" stroke-dasharray="0,0"><path id="SvgjsPath2864" d="M0,2 L14,6 L0,11 L0,2" fill="#323232" stroke="#323232" stroke-width="2"></path></marker><marker id="SvgjsMarker2873" markerWidth="16" markerHeight="12" refX="16" refY="6" viewBox="0 0 16 12" orient="auto" markerUnits="userSpaceOnUse" stroke-dasharray="0,0"><path id="SvgjsPath2874" d="M0,2 L14,6 L0,11 L0,2" fill="#323232" stroke="#323232" stroke-width="2"></path></marker><marker id="SvgjsMarker2898" markerWidth="16" markerHeight="12" refX="16" refY="6" viewBox="0 0 16 12" orient="auto" markerUnits="userSpaceOnUse" stroke-dasharray="0,0"><path id="SvgjsPath2899" d="M0,2 L14,6 L0,11 L0,2" fill="#323232" stroke="#323232" stroke-width="2"></path></marker></defs><g id="SvgjsG2750" transform="translate(153,61)"><path id="SvgjsPath2751" d="M 47.5 30L 47.5 544" stroke-dasharray="3,4" stroke="rgba(50,50,50,1)" stroke-width="2" fill="none"></path><path id="SvgjsPath2752" d="M 0 0L 95 0L 95 30L 0 30Z" stroke="rgba(50,50,50,1)" stroke-width="2" fill-opacity="1" fill="#ffffff"></path><g id="SvgjsG2753"><text id="SvgjsText2754" font-family="微软雅黑" text-anchor="middle" font-size="13px" width="75px" fill="#323232" font-weight="400" align="middle" anchor="middle" family="微软雅黑" size="13px" weight="400" font-style="" opacity="1" y="5.05" transform="rotate(0)"><tspan id="SvgjsTspan2755" dy="16" x="47.5"><tspan id="SvgjsTspan2756" style="text-decoration:;">LeakCanary</tspan></tspan></text></g></g><g id="SvgjsG2757" transform="translate(182.5,149)"><path id="SvgjsPath2758" d="M 0 4Q 0 0 4 0L 26 0Q 30 0 30 4L 30 604Q 30 608 26 608L 4 608Q 0 608 0 604L 0 4Z" stroke="rgba(50,50,50,1)" stroke-width="2" fill-opacity="1" fill="#ffffff"></path></g><g id="SvgjsG2759" transform="translate(42,61)"><path id="SvgjsPath2760" d="M 37.5 30L 37.5 503" stroke-dasharray="3,4" stroke="rgba(50,50,50,1)" stroke-width="2" fill="none"></path><path id="SvgjsPath2761" d="M 0 0L 75 0L 75 30L 0 30Z" stroke="rgba(50,50,50,1)" stroke-width="2" fill-opacity="1" fill="#ffffff"></path><g id="SvgjsG2762"><text id="SvgjsText2763" font-family="微软雅黑" text-anchor="middle" font-size="13px" width="55px" fill="#323232" font-weight="400" align="middle" anchor="middle" family="微软雅黑" size="13px" weight="400" font-style="" opacity="1" y="5.05" transform="rotate(0)"><tspan id="SvgjsTspan2764" dy="16" x="37.5"><tspan id="SvgjsTspan2765" style="text-decoration:;">User</tspan></tspan></text></g></g><g id="SvgjsG2766" transform="translate(63.5,25)"><path id="SvgjsPath2767" d="M 9 3.75C 9 -1.25 18 -1.25 18 3.75C 18 8.75 9 8.75 9 3.75M 13.5 7.5L 13.5 22.5M 13.5 22.5L 2.25 30M 13.5 22.5L 24.75 30M 0 15L 27 15" stroke="rgba(50,50,50,1)" stroke-width="2" fill-opacity="1" fill="#99ff99"></path><path id="SvgjsPath2768" d="M 0 0L 27 0L 27 30L 0 30Z" stroke="none" fill="none"></path><g id="SvgjsG2769"><text id="SvgjsText2770" font-family="微软雅黑" text-anchor="middle" font-size="13px" width="67px" fill="#323232" font-weight="400" align="middle" anchor="middle" family="微软雅黑" size="13px" weight="400" font-style="" opacity="1" y="35.05" transform="rotate(0)"></text></g></g><g id="SvgjsG2771" transform="translate(62,149)"><path id="SvgjsPath2772" d="M 0 4Q 0 0 4 0L 26 0Q 30 0 30 4L 30 678Q 30 682 26 682L 4 682Q 0 682 0 678L 0 4Z" stroke="rgba(50,50,50,1)" stroke-width="2" fill-opacity="1" fill="#ffffff"></path></g><g id="SvgjsG2773" transform="translate(52.5,134)"><path id="SvgjsPath2774" d="M 0 0L 160 0L 160 40L 0 40Z" stroke="none" fill="none"></path><g id="SvgjsG2775"><text id="SvgjsText2776" font-family="微软雅黑" text-anchor="middle" font-size="13px" width="160px" fill="#323232" font-weight="400" align="middle" anchor="middle" family="微软雅黑" size="13px" weight="400" font-style="" opacity="1" y="10.05" transform="rotate(0)"><tspan id="SvgjsTspan2777" dy="16" x="80"><tspan id="SvgjsTspan2778" style="text-decoration:;">install()</tspan></tspan></text></g></g><g id="SvgjsG2779" transform="translate(290,61)"><path id="SvgjsPath2780" d="M 94 30L 94 1187" stroke-dasharray="3,4" stroke="rgba(50,50,50,1)" stroke-width="2" fill="none"></path><path id="SvgjsPath2781" d="M 0 0L 188 0L 188 30L 0 30Z" stroke="rgba(50,50,50,1)" stroke-width="2" fill-opacity="1" fill="#ffffff"></path><g id="SvgjsG2782"><text id="SvgjsText2783" font-family="微软雅黑" text-anchor="middle" font-size="13px" width="168px" fill="#323232" font-weight="400" align="middle" anchor="middle" family="微软雅黑" size="13px" weight="400" font-style="" opacity="1" y="5.05" transform="rotate(0)"><tspan id="SvgjsTspan2784" dy="16" x="94"><tspan id="SvgjsTspan2785" style="text-decoration:;">AndroidRefWatcherBuilder</tspan></tspan></text></g></g><g id="SvgjsG2786" transform="translate(229.5,165)"><path id="SvgjsPath2787" d="M 0 0L 120 0L 120 40L 0 40Z" stroke="none" fill="none"></path><g id="SvgjsG2788"><text id="SvgjsText2789" font-family="微软雅黑" text-anchor="middle" font-size="13px" width="120px" fill="#323232" font-weight="400" align="middle" anchor="middle" family="微软雅黑" size="13px" weight="400" font-style="" opacity="1" y="10.05" transform="rotate(0)"><tspan id="SvgjsTspan2790" dy="16" x="60"><tspan id="SvgjsTspan2791" style="text-decoration:;">refWatcher()</tspan></tspan></text></g></g><g id="SvgjsG2792" transform="translate(206.5,244)"><path id="SvgjsPath2793" d="M 0 0L 160 0L 160 40L 0 40Z" stroke="none" fill="none"></path><g id="SvgjsG2794"><text id="SvgjsText2795" font-family="微软雅黑" text-anchor="middle" font-size="13px" width="160px" fill="#323232" font-weight="400" align="middle" anchor="middle" family="微软雅黑" size="13px" weight="400" font-style="" opacity="1" y="10.05" transform="rotate(0)"><tspan id="SvgjsTspan2796" dy="16" x="80"><tspan id="SvgjsTspan2797" style="text-decoration:;">listenerServiceClass()</tspan></tspan></text></g></g><g id="SvgjsG2798" transform="translate(206.5,308)"><path id="SvgjsPath2799" d="M 0 0L 160 0L 160 40L 0 40Z" stroke="none" fill="none"></path><g id="SvgjsG2800"><text id="SvgjsText2801" font-family="微软雅黑" text-anchor="middle" font-size="13px" width="160px" fill="#323232" font-weight="400" align="middle" anchor="middle" family="微软雅黑" size="13px" weight="400" font-style="" opacity="1" y="10.05" transform="rotate(0)"><tspan id="SvgjsTspan2802" dy="16" x="80"><tspan id="SvgjsTspan2803" style="text-decoration:;">excludedRefs()</tspan></tspan></text></g></g><g id="SvgjsG2804" transform="translate(209,371)"><path id="SvgjsPath2805" d="M 0 0L 160 0L 160 40L 0 40Z" stroke="none" fill="none"></path><g id="SvgjsG2806"><text id="SvgjsText2807" font-family="微软雅黑" text-anchor="middle" font-size="13px" width="160px" fill="#323232" font-weight="400" align="middle" anchor="middle" family="微软雅黑" size="13px" weight="400" font-style="" opacity="1" y="10.05" transform="rotate(0)"><tspan id="SvgjsTspan2808" dy="16" x="80"><tspan id="SvgjsTspan2809" style="text-decoration:;">buildAndInstall()</tspan></tspan></text></g></g><g id="SvgjsG2810" transform="translate(541,61)"><path id="SvgjsPath2811" d="M 71.5 30L 71.5 1093" stroke-dasharray="3,4" stroke="rgba(50,50,50,1)" stroke-width="2" fill="none"></path><path id="SvgjsPath2812" d="M 0 0L 143 0L 143 30L 0 30Z" stroke="rgba(50,50,50,1)" stroke-width="2" fill-opacity="1" fill="#ffffff"></path><g id="SvgjsG2813"><text id="SvgjsText2814" font-family="微软雅黑" text-anchor="middle" font-size="13px" width="123px" fill="#323232" font-weight="400" align="middle" anchor="middle" family="微软雅黑" size="13px" weight="400" font-style="" opacity="1" y="5.05" transform="rotate(0)"><tspan id="SvgjsTspan2815" dy="16" x="71.5"><tspan id="SvgjsTspan2816" style="text-decoration:;">ActivityRefWatcher</tspan></tspan></text></g></g><g id="SvgjsG2817"><path id="SvgjsPath2818" d="M92 170L137.5 170L137.5 170L183 170" stroke="#323232" stroke-width="2" fill="none" marker-end="url(#SvgjsMarker2819)"></path></g><g id="SvgjsG2821" transform="translate(366.5,165)"><path id="SvgjsPath2822" d="M 0 4Q 0 0 4 0L 26 0Q 30 0 30 4L 30 54Q 30 58 26 58L 4 58Q 0 58 0 54L 0 4Z" stroke="rgba(50,50,50,1)" stroke-width="2" fill-opacity="1" fill="#ffffff"></path></g><g id="SvgjsG2823"><path id="SvgjsPath2824" d="M212 195L289.25 195L289.25 194L366.5 194" stroke="#323232" stroke-width="2" fill="none" marker-end="url(#SvgjsMarker2825)"></path></g><g id="SvgjsG2827" transform="translate(366.5,255)"><path id="SvgjsPath2828" d="M 0 4Q 0 0 4 0L 26 0Q 30 0 30 4L 30 49Q 30 53 26 53L 4 53Q 0 53 0 49L 0 4Z" stroke="rgba(50,50,50,1)" stroke-width="2" fill-opacity="1" fill="#ffffff"></path></g><g id="SvgjsG2829"><path id="SvgjsPath2830" d="M212 282L289.25 282L289.25 281.5L366.5 281.5" stroke="#323232" stroke-width="2" fill="none" marker-end="url(#SvgjsMarker2831)"></path></g><g id="SvgjsG2833" transform="translate(366.5,323)"><path id="SvgjsPath2834" d="M 0 4Q 0 0 4 0L 26 0Q 30 0 30 4L 30 40Q 30 44 26 44L 4 44Q 0 44 0 40L 0 4Z" stroke="rgba(50,50,50,1)" stroke-width="2" fill-opacity="1" fill="#ffffff"></path></g><g id="SvgjsG2835"><path id="SvgjsPath2836" d="M212 345L289.25 345L289.25 345L366.5 345" stroke="#323232" stroke-width="2" fill="none" marker-end="url(#SvgjsMarker2837)"></path></g><g id="SvgjsG2839" transform="translate(369,385)"><path id="SvgjsPath2840" d="M 0 4Q 0 0 4 0L 26 0Q 30 0 30 4L 30 322Q 30 326 26 326L 4 326Q 0 326 0 322L 0 4Z" stroke="rgba(50,50,50,1)" stroke-width="2" fill-opacity="1" fill="#ffffff"></path></g><g id="SvgjsG2841"><path id="SvgjsPath2842" d="M211 407L290 407L290 407L369 407" stroke="#323232" stroke-width="2" fill="none" marker-end="url(#SvgjsMarker2843)"></path></g><g id="SvgjsG2845"><path id="SvgjsPath2846" d="M399 423L429 423L429 477L399 477" stroke="#323232" stroke-width="2" fill="none" marker-end="url(#SvgjsMarker2847)"></path></g><g id="SvgjsG2849" transform="translate(372,421)"><path id="SvgjsPath2850" d="M 0 0L 160 0L 160 40L 0 40Z" stroke="none" fill="none"></path><g id="SvgjsG2851"><text id="SvgjsText2852" font-family="微软雅黑" text-anchor="middle" font-size="13px" width="160px" fill="#323232" font-weight="400" align="middle" anchor="middle" family="微软雅黑" size="13px" weight="400" font-style="" opacity="1" y="10.05" transform="rotate(0)"><tspan id="SvgjsTspan2853" dy="16" x="80"><tspan id="SvgjsTspan2854" style="text-decoration:;">build()</tspan></tspan></text></g></g><g id="SvgjsG2855" transform="translate(597.5,481)"><path id="SvgjsPath2856" d="M 0 4Q 0 0 4 0L 26 0Q 30 0 30 4L 30 96Q 30 100 26 100L 4 100Q 0 100 0 96L 0 4Z" stroke="rgba(50,50,50,1)" stroke-width="2" fill-opacity="1" fill="#ffffff"></path></g><g id="SvgjsG2857"><path id="SvgjsPath2858" d="M397 498L497.5 498L497.5 498L598 498" stroke="#323232" stroke-width="2" fill="none" marker-end="url(#SvgjsMarker2859)"></path></g><g id="SvgjsG2861"><path id="SvgjsPath2862" d="M369 683.6580645161291L290.5 683.6580645161291L290.5 684L212 684" stroke-dasharray="8,5" stroke="#323232" stroke-width="2" fill="none" marker-end="url(#SvgjsMarker2863)"></path></g><g id="SvgjsG2865" transform="translate(215,637)"><path id="SvgjsPath2866" d="M 0 0L 160 0L 160 40L 0 40Z" stroke="none" fill="none"></path><g id="SvgjsG2867"><text id="SvgjsText2868" font-family="微软雅黑" text-anchor="middle" font-size="13px" width="160px" fill="#323232" font-weight="400" align="middle" anchor="middle" family="微软雅黑" size="13px" weight="400" font-style="" opacity="1" y="10.05" transform="rotate(0)"><tspan id="SvgjsTspan2869" dy="16" x="80"><tspan id="SvgjsTspan2870" style="text-decoration:;">返回：RefWatcher对象</tspan></tspan></text></g></g><g id="SvgjsG2871"><path id="SvgjsPath2872" d="M182.98858409427524 739.8825698130707L136.9942920471376 739.8825698130707L136.9942920471376 740L91 740" stroke="#323232" stroke-width="2" fill="none" marker-end="url(#SvgjsMarker2873)"></path></g><g id="SvgjsG2875" transform="translate(25,701)"><path id="SvgjsPath2876" d="M 0 0L 160 0L 160 40L 0 40Z" stroke="none" fill="none"></path><g id="SvgjsG2877"><text id="SvgjsText2878" font-family="微软雅黑" text-anchor="middle" font-size="13px" width="160px" fill="#323232" font-weight="400" align="middle" anchor="middle" family="微软雅黑" size="13px" weight="400" font-style="" opacity="1" y="10.05" transform="rotate(0)"><tspan id="SvgjsTspan2879" dy="16" x="80"><tspan id="SvgjsTspan2880" style="text-decoration:;">返回：RefWatcher对象</tspan></tspan></text></g></g><g id="SvgjsG2881" transform="translate(418,461)"><path id="SvgjsPath2882" d="M 0 0L 160 0L 160 40L 0 40Z" stroke="none" fill="none"></path><g id="SvgjsG2883"><text id="SvgjsText2884" font-family="微软雅黑" text-anchor="middle" font-size="13px" width="160px" fill="#323232" font-weight="400" align="middle" anchor="middle" family="微软雅黑" size="13px" weight="400" font-style="" opacity="1" y="10.05" transform="rotate(0)"><tspan id="SvgjsTspan2885" dy="16" x="80"><tspan id="SvgjsTspan2886" style="text-decoration:;">install()</tspan></tspan></text></g></g><g id="SvgjsG2887" transform="translate(794,64)"><path id="SvgjsPath2888" d="M 44 30L 44 1225" stroke-dasharray="3,4" stroke="rgba(50,50,50,1)" stroke-width="2" fill="none"></path><path id="SvgjsPath2889" d="M 0 0L 88 0L 88 30L 0 30Z" stroke="rgba(50,50,50,1)" stroke-width="2" fill-opacity="1" fill="#ffffff"></path><g id="SvgjsG2890"><text id="SvgjsText2891" font-family="微软雅黑" text-anchor="middle" font-size="13px" width="68px" fill="#323232" font-weight="400" align="middle" anchor="middle" family="微软雅黑" size="13px" weight="400" font-style="" opacity="1" y="5.05" transform="rotate(0)"><tspan id="SvgjsTspan2892" dy="16" x="44"><tspan id="SvgjsTspan2893" style="text-decoration:;">Application</tspan></tspan></text></g></g><g id="SvgjsG2894" transform="translate(826,537)"><path id="SvgjsPath2895" d="M 0 4Q 0 0 4 0L 26 0Q 30 0 30 4L 30 96Q 30 100 26 100L 4 100Q 0 100 0 96L 0 4Z" stroke="rgba(50,50,50,1)" stroke-width="2" fill-opacity="1" fill="#ffffff"></path></g><g id="SvgjsG2896"><path id="SvgjsPath2897" d="M627 557L726.5 557L726.5 557L826 557" stroke="#323232" stroke-width="2" fill="none" marker-end="url(#SvgjsMarker2898)"></path></g><g id="SvgjsG2900" transform="translate(630,509)"><path id="SvgjsPath2901" d="M 0 0L 208 0L 208 40L 0 40Z" stroke="none" fill="none"></path><g id="SvgjsG2902"><text id="SvgjsText2903" font-family="微软雅黑" text-anchor="middle" font-size="13px" width="208px" fill="#323232" font-weight="400" align="middle" anchor="middle" family="微软雅黑" size="13px" weight="400" font-style="" opacity="1" y="10.05" transform="rotate(0)"><tspan id="SvgjsTspan2904" dy="16" x="104"><tspan id="SvgjsTspan2905" style="text-decoration:;">registerActivityLifecycleCallbacks</tspan></tspan></text></g></g></svg>